<?xml version="1.0" encoding="utf-8"?>
<!-- Uploaded to: SVG Repo, www.svgrepo.com, Generator: SVG Repo Mixer Tools -->
<svg width="800px" height="800px" viewBox="0 0 1024 1024" class="icon"  version="1.1" xmlns="http://www.w3.org/2000/svg"><path d="M244.4 273.3c0-4.4 3.6-8 8-8s8 3.6 8 8v44.3c0 4.4-3.6 8-8 8s-8-3.6-8-8v-44.3zM307.4 267.1c4.6 0 8.3 3.7 8.3 8.3v16.5c0 4.6-3.7 8.3-8.3 8.3-4.6 0-8.3-3.7-8.3-8.3v-16.5c0-4.6 3.7-8.3 8.3-8.3zM716.6 267.1c4.6 0 8.3 3.7 8.3 8.3v16.5c0 4.6-3.7 8.3-8.3 8.3-4.6 0-8.3-3.7-8.3-8.3v-16.5c0-4.6 3.7-8.3 8.3-8.3zM658.7 267.1c4.6 0 8.3 3.7 8.3 8.3v16.5c0 4.6-3.7 8.3-8.3 8.3-4.6 0-8.3-3.7-8.3-8.3v-16.5c0.1-4.6 3.8-8.3 8.3-8.3zM600.9 267.1c4.6 0 8.3 3.7 8.3 8.3v16.5c0 4.6-3.7 8.3-8.3 8.3-4.6 0-8.3-3.7-8.3-8.3v-16.5c0-4.6 3.7-8.3 8.3-8.3zM543 267.1c4.6 0 8.3 3.7 8.3 8.3v16.5c0 4.6-3.7 8.3-8.3 8.3-4.6 0-8.3-3.7-8.3-8.3v-16.5c0-4.6 3.7-8.3 8.3-8.3zM485.1 267.1c4.6 0 8.3 3.7 8.3 8.3v16.5c0 4.6-3.7 8.3-8.3 8.3-4.6 0-8.3-3.7-8.3-8.3v-16.5c0.1-4.6 3.8-8.3 8.3-8.3zM427.3 267.1c4.6 0 8.3 3.7 8.3 8.3v16.5c0 4.6-3.7 8.3-8.3 8.3-4.6 0-8.3-3.7-8.3-8.3v-16.5c0-4.6 3.7-8.3 8.3-8.3zM369.4 267.1c4.6 0 8.3 3.7 8.3 8.3v16.5c0 4.6-3.7 8.3-8.3 8.3-4.6 0-8.3-3.7-8.3-8.3v-16.5c0-4.6 3.7-8.3 8.3-8.3zM761.7 273.3c0-4.4 3.6-8 8-8s8 3.6 8 8v44.3c0 4.4-3.6 8-8 8s-8-3.6-8-8v-44.3z" fill="" /><path d="M237 232h550c2.2 0 4 1.8 4 4v25.1c0 2.2-1.8 4-4 4H237c-2.2 0-4-1.8-4-4V236c0-2.2 1.8-4 4-4z" fill="#C4CDD1" /><path d="M241 240v17.1h542V240H241z m0-16h542c8.8 0 16 7.2 16 16v17.1c0 8.8-7.2 16-16 16H241c-8.8 0-16-7.2-16-16V240c0-8.8 7.2-16 16-16z" fill="" /><path d="M643.3 761.9V605.2v-6.1c0-74.7-47.6-135.3-128.7-135.3-73.3 0-132.8 60.6-132.8 135.3 0 2 0 4.1 0.1 6.1l-0.1 156.7H264V392h494v369.9H643.3z" fill="#FFC200" /><path d="M292 504h64v50h-64zM670 504h64v50h-64zM670 640h64v50h-64zM288 640h64v50h-64z" fill="#FFFFFF" /><path d="M239.4 331.5l7.7 33.9c1 4.3-1.7 8.6-6 9.6s-8.6-1.7-9.6-6l-8.3-36.6c-2.3-10 7-16.6 18-17.4 0.7 0 1.4-0.1 2.1-0.1h535.5c10.7 0 20.4 5.3 20.4 14.8 0 0.9-0.1 1.8-0.3 2.6l-8.3 36.6c-1 4.3-5.3 7-9.6 6s-7-5.3-6-9.6l7.7-33.9c-1-0.3-2.4-0.6-3.9-0.6H243.3c-2.1 0.2-3.1 0.4-3.9 0.7z" fill="" /><path d="M779.3 781.5z m-3.5-180.6c0-4.4 3.6-8 8-8s8 3.6 8 8v183.9c0 5.6-2.5 10.1-7.6 11.9-2.8 1-4.2 1-9.2 0.6-1.5-0.1-2.4-0.2-3.3-0.2h-159v-192c0-5.6-0.1-20.1-0.1-21.4-2.9-52.4-47.7-92.5-100.1-89.6-56.7 3.2-101.1 50.1-101.1 106.9v196h-159c-6.5 0-8.7-0.1-11.7-1.3-5.4-2.1-8.4-6.9-8.4-13.1V645.3c0-4.4 3.6-8 8-8s8 3.6 8 8V781H395.4V601c0-65.3 51-119.3 116.3-122.9 61.2-3.4 113.6 43.5 117 104.7 0.1 1.1 0.1 4.9 0.1 11.3v187h143c1.3 0 2.4 0.1 4.1 0.2V600.9z m-527.6-8.6c0 4.4-3.6 8-8 8s-8-3.6-8-8V378.5c0-11.1 9-20.1 20.1-20.1h90.8c4.4 0 8 3.6 8 8s-3.6 8-8 8H252.3c-2.3 0-4.1 1.8-4.1 4.1v213.8z m134.7-217.9c-4.4 0-8-3.6-8-8s3.6-8 8-8h388.8c11.1 0 20.1 9 20.1 20.1v181.3c0 4.4-3.6 8-8 8s-8-3.6-8-8V378.5c0-2.3-1.8-4.1-4.1-4.1H382.9z" fill="" /><path d="M297.1 728c4.6 0 8.3 3.7 8.3 8.3v43.4c0 4.6-3.7 8.3-8.3 8.3-4.6 0-8.3-3.7-8.3-8.3v-43.4c0-4.6 3.7-8.3 8.3-8.3zM677.3 728c4.6 0 8.3 3.7 8.3 8.3v43.4c0 4.6-3.7 8.3-8.3 8.3-4.6 0-8.3-3.7-8.3-8.3v-43.4c0.1-4.6 3.8-8.3 8.3-8.3zM344.6 746.6c4.6 0 8.3 3.7 8.3 8.3v26.9c0 4.6-3.7 8.3-8.3 8.3-4.6 0-8.3-3.7-8.3-8.3v-26.9c0-4.6 3.7-8.3 8.3-8.3zM724.9 746.6c4.6 0 8.3 3.7 8.3 8.3v26.9c0 4.6-3.7 8.3-8.3 8.3-4.6 0-8.3-3.7-8.3-8.3v-26.9c0-4.6 3.7-8.3 8.3-8.3zM202 605.7c-4.4 0-8-3.6-8-8s3.6-8 8-8h241.6c4.4 0 8 3.6 8 8s-3.6 8-8 8H202z" fill="" /><path d="M202 798.1c-4.4 0-8-3.6-8-8s3.6-8 8-8h620c4.4 0 8 3.6 8 8s-3.6 8-8 8H202zM580.4 605.9c-4.4 0-8-3.6-8-8s3.6-8 8-8H822c4.4 0 8 3.6 8 8s-3.6 8-8 8H580.4zM294.7 506.6v46H349v-46h-54.3z m0-16H349c8.8 0 16 7.2 16 16v46c0 8.8-7.2 16-16 16h-54.3c-8.8 0-16-7.2-16-16v-46c0-8.8 7.2-16 16-16z" fill="" /><path d="M290 542h68v12h-68zM294.7 643v46H349v-46h-54.3z m0-16H349c8.8 0 16 7.2 16 16v46c0 8.8-7.2 16-16 16h-54.3c-8.8 0-16-7.2-16-16v-46c0-8.8 7.2-16 16-16zM674.9 506.6v46h54.3v-46h-54.3z m0-16h54.3c8.8 0 16 7.2 16 16v46c0 8.8-7.2 16-16 16h-54.3c-8.8 0-16-7.2-16-16v-46c0-8.8 7.2-16 16-16z" fill="" /><path d="M666 542h68v12h-68zM674.9 643v46h54.3v-46h-54.3z m0-16h54.3c8.8 0 16 7.2 16 16v46c0 8.8-7.2 16-16 16h-54.3c-8.8 0-16-7.2-16-16v-46c0-8.8 7.2-16 16-16z" fill="" /><path d="M666 682h68v12h-68zM290 682h68v12h-68z" fill="" /></svg>